<!--?xml version="1.0" encoding="utf-8"?-->
<!-- Generator: Adobe Illustrator 18.1.1, SVG Export Plug-In . SVG Version: 6.00 Build 0)  -->

<svg version="1.1" id="_x31_0" xmlns="http://www.w3.org/2000/svg" xmlns:xlink="http://www.w3.org/1999/xlink" x="0px" y="0px" viewBox="0 0 512 512" style="width: 256px; height: 256px; opacity: 1;" xml:space="preserve">
<style type="text/css">
	.st0{fill:#374149;}
</style>
<g>
	<path class="st0" d="M503.053,420.894c-4.41-22.278-176.842-115.957-184.421-117.703h-2.855l-0.012-56.37
		c14.938-8.516,18.496-33.363,19.446-40.23c0.031-0.199,0.074-0.355,0.101-0.558c21.418,7.175,24.504-33.125,25.57-43.266
		c0.958-9.187-3.098-15.699-6.015-18.199c0.75-1.527,1.558-3.68,2.343-6.301l0.008-0.008c1.942-6.496,3.774-15.882,4.5-25.836
		c1.058-14.554-0.27-30.347-7.137-40.121c-2.434-3.449-6.137-7.726-10.43-12.007c-9.938-9.91-23.023-19.895-30.652-19.895
		c-12.367-22.25-28.23-36.734-57.492-38.671c-1.758-0.125-3.574-0.195-5.438-0.219c-24.289-0.324-66.062,28.723-82.706,58.766
		c-16.516,29.813-21.406,40.652-13.078,77.984c0,0,0,0,0.008,0.008c0.789,2.621,1.594,4.774,2.344,6.301
		c-2.918,2.5-6.973,9.012-6.012,18.199c1.066,10.144,4.149,50.449,25.574,43.266c0.004,0,0.011,0,0.015-0.004
		c0.84,6.042,6.094,33.507,19.519,40.793l-0.007,56.367v0.003h-2.867c-7.574,1.746-180.007,95.426-184.418,117.703
		c-3.39,17.129-7.594,58.594-8.91,72.042c-0.317,3.219,1.71,6.176,4.847,6.965c24.117,6.047,128.331,10.594,253.238,10.594
		c124.675,0,225.502-4.531,249.054-10.562c3.11-0.797,5.11-3.758,4.797-6.953C510.655,479.577,506.449,438.038,503.053,420.894z" style="fill: rgb(75, 75, 75);"></path>
</g>
</svg>
